<?xml version="1.0" encoding="utf-8" ?>
<svg baseProfile="tiny" height="160px" version="1.2" width="160px" xmlns="http://www.w3.org/2000/svg" xmlns:ev="http://www.w3.org/2001/xml-events" xmlns:xlink="http://www.w3.org/1999/xlink"><defs /><polygon fill="none" points="80.0,72.8 86.8476,77.7751 84.2321,85.8249 75.7679,85.8249 73.1524,77.7751" stroke="#cccccc" /><polygon fill="none" points="80.0,65.6 93.6952,75.5502 88.4641,91.6498 71.5359,91.6498 66.3048,75.5502" stroke="#777777" /><polygon fill="none" points="80.0,58.4 100.5428,73.3252 92.6962,97.4748 67.3038,97.4748 59.4572,73.3252" stroke="#cccccc" /><polygon fill="none" points="80.0,51.2 107.3904,71.1003 96.9282,103.2997 63.0718,103.2997 52.6096,71.1003" stroke="#777777" /><polygon fill="none" points="80.0,44.0 114.238,68.8754 101.1603,109.1246 58.8397,109.1246 45.762,68.8754" stroke="#cccccc" /><polygon fill="none" points="80.0,36.8 121.0856,66.6505 105.3923,114.9495 54.6077,114.9495 38.9144,66.6505" stroke="#777777" /><polygon fill="none" points="80.0,29.6 127.9332,64.4255 109.6244,120.7745 50.3756,120.7745 32.0668,64.4255" stroke="#cccccc" /><polygon fill="none" points="80.0,22.4 134.7809,62.2006 113.8564,126.5994 46.1436,126.5994 25.2191,62.2006" stroke="#777777" /><polygon fill="none" points="80.0,15.2 141.6285,59.9757 118.0885,132.4243 41.9115,132.4243 18.3715,59.9757" stroke="#cccccc" /><polygon fill="none" points="80.0,8.0 148.4761,57.7508 122.3205,138.2492 37.6795,138.2492 11.5239,57.7508" stroke="#777777" /><line stroke="#777777" x1="80" x2="80.0" y1="80" y2="8.0" /><line stroke="#777777" x1="80" x2="148.4761" y1="80" y2="57.7508" /><line stroke="#777777" x1="80" x2="122.3205" y1="80" y2="138.2492" /><line stroke="#777777" x1="80" x2="37.6795" y1="80" y2="138.2492" /><line stroke="#777777" x1="80" x2="11.5239" y1="80" y2="57.7508" /><polygon fill="#00ff00" fill-opacity="1" points="80.0,22.4 141.6285,59.9757 109.6244,120.7745 58.8397,109.1246 52.6096,71.1003" stroke="#00cc00" /><polygon fill="none" fill-opacity="1" points="80.0,51.2 107.3904,71.1003 96.9282,103.2997 63.0718,103.2997 52.6096,71.1003" stroke="#cc0000" /><polygon fill="#882244" fill-opacity="0.5" points="80.0,65.6 100.5428,73.3252 92.6962,97.4748 63.0718,103.2997 18.3715,59.9757" stroke="#441122" /></svg>